<svg width="30" height="30" viewBox="0 0 30 30" fill="none" xmlns="http://www.w3.org/2000/svg">
<path d="M10.5 21.25L15 16.75L19.5 21.25L21.25 19.5L16.75 15L21.25 10.5L19.5 8.75L15 13.25L10.5 8.75L8.75 10.5L13.25 15L8.75 19.5L10.5 21.25ZM15 27.5C13.2708 27.5 11.6458 27.1719 10.125 26.5156C8.60417 25.8594 7.28125 24.9688 6.15625 23.8438C5.03125 22.7188 4.14063 21.3958 3.48438 19.875C2.82812 18.3542 2.5 16.7292 2.5 15C2.5 13.2708 2.82812 11.6458 3.48438 10.125C4.14063 8.60417 5.03125 7.28125 6.15625 6.15625C7.28125 5.03125 8.60417 4.14063 10.125 3.48438C11.6458 2.82812 13.2708 2.5 15 2.5C16.7292 2.5 18.3542 2.82812 19.875 3.48438C21.3958 4.14063 22.7188 5.03125 23.8438 6.15625C24.9688 7.28125 25.8594 8.60417 26.5156 10.125C27.1719 11.6458 27.5 13.2708 27.5 15C27.5 16.7292 27.1719 18.3542 26.5156 19.875C25.8594 21.3958 24.9688 22.7188 23.8438 23.8438C22.7188 24.9688 21.3958 25.8594 19.875 26.5156C18.3542 27.1719 16.7292 27.5 15 27.5ZM15 25C17.7917 25 20.1563 24.0313 22.0938 22.0938C24.0313 20.1563 25 17.7917 25 15C25 12.2083 24.0313 9.84375 22.0938 7.90625C20.1563 5.96875 17.7917 5 15 5C12.2083 5 9.84375 5.96875 7.90625 7.90625C5.96875 9.84375 5 12.2083 5 15C5 17.7917 5.96875 20.1563 7.90625 22.0938C9.84375 24.0313 12.2083 25 15 25Z" fill="white"/>
</svg>
