<svg width="62" height="63" viewBox="0 0 62 63" fill="none" xmlns="http://www.w3.org/2000/svg">
<ellipse cx="30.8564" cy="31.5" rx="30.3692" ry="31.5" fill="#C54966"/>
<path d="M48.6923 18.6077V28.2769M48.6923 28.2769H39.2266M48.6923 28.2769L41.3721 21.2506C39.6766 19.5178 37.5789 18.2519 35.2749 17.5711C32.9709 16.8904 30.5356 16.8169 28.1963 17.3576C25.857 17.8983 23.6898 19.0355 21.8971 20.6631C20.1044 22.2907 18.7446 24.3557 17.9445 26.6654M13.9846 44.3923V34.7231M13.9846 34.7231H23.4504M13.9846 34.7231L21.3048 41.7494C23.0003 43.4822 25.098 44.7481 27.402 45.4289C29.706 46.1096 32.1413 46.1831 34.4806 45.6424C36.82 45.1017 38.9871 43.9645 40.7798 42.3369C42.5725 40.7093 43.9324 38.6443 44.7325 36.3346" stroke="white" stroke-width="3" stroke-linecap="round" stroke-linejoin="round"/>
</svg>
