<svg width="24" height="24" viewBox="0 0 24 24" fill="none" xmlns="http://www.w3.org/2000/svg">
<path d="M20.9098 11.1201V6.73007C20.9098 5.91007 20.2898 4.98007 19.5198 4.67007L13.9498 2.39007C12.6998 1.88007 11.2898 1.88007 10.0398 2.39007L4.46984 4.67007C3.70984 4.98007 3.08984 5.91007 3.08984 6.73007V11.1201C3.08984 16.0101 6.63984 20.5901 11.4898 21.9301C11.8198 22.0201 12.1798 22.0201 12.5098 21.9301C17.3598 20.5901 20.9098 16.0101 20.9098 11.1201ZM12.7498 12.8701V15.5001C12.7498 15.9101 12.4098 16.2501 11.9998 16.2501C11.5898 16.2501 11.2498 15.9101 11.2498 15.5001V12.8701C10.2398 12.5501 9.49984 11.6101 9.49984 10.5001C9.49984 9.12007 10.6198 8.00007 11.9998 8.00007C13.3798 8.00007 14.4998 9.12007 14.4998 10.5001C14.4998 11.6201 13.7598 12.5501 12.7498 12.8701Z" fill="#3DB429"/>
</svg>
