<svg width="21" height="21" viewBox="0 0 21 21" fill="none" xmlns="http://www.w3.org/2000/svg">
<g id="ic:outline-place">
<path id="Vector" d="M10.5 10.5C9.5375 10.5 8.75 9.7125 8.75 8.75C8.75 7.7875 9.5375 7 10.5 7C11.4625 7 12.25 7.7875 12.25 8.75C12.25 9.7125 11.4625 10.5 10.5 10.5ZM15.75 8.925C15.75 5.74875 13.4312 3.5 10.5 3.5C7.56875 3.5 5.25 5.74875 5.25 8.925C5.25 10.9725 6.95625 13.685 10.5 16.9225C14.0437 13.685 15.75 10.9725 15.75 8.925ZM10.5 1.75C14.175 1.75 17.5 4.5675 17.5 8.925C17.5 11.83 15.1637 15.2688 10.5 19.25C5.83625 15.2688 3.5 11.83 3.5 8.925C3.5 4.5675 6.825 1.75 10.5 1.75Z" fill="white"/>
</g>
</svg>
